<svg width="40" height="40" viewBox="0 0 40 40" fill="none" xmlns="http://www.w3.org/2000/svg">
<path d="M19.2934 22.5067C18.8875 22.3467 18.5245 22.1185 18.2045 21.8222L3.69342 8.29778C3.48305 8.09926 3.52157 8 3.80897 8H36.2134C36.4949 8 36.5334 8.0963 36.329 8.28889C31.4253 12.8637 26.4668 17.4326 21.4534 21.9956C20.7571 22.6267 20.0371 22.797 19.2934 22.5067Z" fill="white"/>
<path d="M1.51979 9.86219L11.7998 19.6933C11.8135 19.7066 11.8244 19.7224 11.8318 19.74C11.8393 19.7576 11.8431 19.7764 11.8431 19.7955C11.8431 19.8146 11.8393 19.8335 11.8318 19.851C11.8244 19.8686 11.8135 19.8845 11.7998 19.8977L1.62645 29.8355C1.60633 29.8546 1.58108 29.8673 1.55381 29.8722C1.52654 29.8771 1.49843 29.874 1.47294 29.8631C1.44745 29.8522 1.42568 29.8342 1.41032 29.8111C1.39495 29.788 1.38666 29.761 1.38645 29.7333L1.27979 9.96441C1.27999 9.9367 1.28828 9.90966 1.30365 9.8866C1.31901 9.86354 1.34078 9.84547 1.36627 9.83462C1.39176 9.82376 1.41987 9.82058 1.44715 9.82548C1.47442 9.83038 1.49966 9.84314 1.51979 9.86219Z" fill="white"/>
<path d="M38.4579 29.8577C34.9823 26.6088 31.7468 23.0755 28.3468 19.7955C28.3187 19.7679 28.2965 19.7348 28.2814 19.6984C28.2664 19.662 28.2589 19.6229 28.2593 19.5835C28.2597 19.544 28.2681 19.5051 28.2839 19.469C28.2996 19.4329 28.3225 19.4003 28.3512 19.3733L38.4579 9.9244C38.5971 9.79403 38.6668 9.82366 38.6668 10.0133V29.7688C38.6668 29.9585 38.5971 29.9881 38.4579 29.8577Z" fill="white"/>
<path d="M36.3067 31.4933C36.3986 31.5496 36.4801 31.6311 36.5512 31.7377C36.6756 31.9126 36.6297 32 36.4134 32H3.50672C3.33783 32 3.31413 31.9392 3.43561 31.8177L13.4978 21.76C13.5957 21.662 13.7286 21.607 13.8677 21.607C14.0067 21.607 14.1406 21.662 14.2401 21.76C15.8623 23.3466 17.9556 25.6711 20.5334 25.2933C22.5334 25 24.4401 23.2222 25.7867 21.6977C25.8275 21.6521 25.8771 21.6152 25.9326 21.5894C25.9882 21.5636 26.0484 21.5494 26.1096 21.5478C26.1707 21.5461 26.2316 21.557 26.2885 21.5797C26.3453 21.6024 26.3969 21.6366 26.4401 21.68L36.1689 31.3822C36.2104 31.4237 36.2564 31.4607 36.3067 31.4933Z" fill="white"/>
</svg>
