<svg width="40" height="40" viewBox="0 0 40 40" fill="none" xmlns="http://www.w3.org/2000/svg">
<path d="M35.9885 26.6235C35.9841 29.1177 34.9891 31.508 33.2223 33.2686C31.4556 35.0292 29.0618 36.0158 26.5676 36.0115L13.3765 35.9885C10.8823 35.9841 8.49201 34.9891 6.73142 33.2223C4.97083 31.4556 3.98419 29.0618 3.98854 26.5676L4.01156 13.3765C4.01592 10.8823 5.01092 8.49201 6.77767 6.73142C8.54442 4.97083 10.9382 3.98419 13.4324 3.98854L26.6235 4.01156C29.1177 4.01592 31.508 5.01092 33.2686 6.77767C35.0292 8.54442 36.0158 10.9382 36.0115 13.4324L35.9885 26.6235ZM30.6311 10.6622C30.6311 10.3169 30.4939 9.98563 30.2497 9.74142C30.0055 9.4972 29.6743 9.36001 29.3289 9.36001C28.9835 9.36001 28.6523 9.4972 28.4081 9.74142C28.1639 9.98563 28.0267 10.3169 28.0267 10.6622C28.0267 11.0076 28.1639 11.3388 28.4081 11.583C28.6523 11.8273 28.9835 11.9645 29.3289 11.9645C29.6743 11.9645 30.0055 11.8273 30.2497 11.583C30.4939 11.3388 30.6311 11.0076 30.6311 10.6622ZM27.9689 19.9956C27.9689 17.8809 27.1289 15.8529 25.6336 14.3576C24.1383 12.8623 22.1102 12.0222 19.9956 12.0222C17.8809 12.0222 15.8529 12.8623 14.3576 14.3576C12.8623 15.8529 12.0222 17.8809 12.0222 19.9956C12.0222 22.1102 12.8623 24.1383 14.3576 25.6336C15.8529 27.1289 17.8809 27.9689 19.9956 27.9689C22.1102 27.9689 24.1383 27.1289 25.6336 25.6336C27.1289 24.1383 27.9689 22.1102 27.9689 19.9956Z" fill="white"/>
<path d="M19.9956 25.2934C22.9239 25.2934 25.2978 22.9195 25.2978 19.9912C25.2978 17.0629 22.9239 14.689 19.9956 14.689C17.0672 14.689 14.6934 17.0629 14.6934 19.9912C14.6934 22.9195 17.0672 25.2934 19.9956 25.2934Z" fill="white"/>
</svg>
