<svg width="30" height="30" viewBox="0 0 30 30" fill="none" xmlns="http://www.w3.org/2000/svg">
<path d="M29.6666 26.9377C29.6666 27.6614 29.3791 28.3555 28.8673 28.8673C28.3555 29.3791 27.6614 29.6666 26.9377 29.6666H3.06214C2.33839 29.6666 1.64429 29.3791 1.13253 28.8673C0.620759 28.3555 0.333252 27.6614 0.333252 26.9377V3.06214C0.333252 2.33839 0.620759 1.64429 1.13253 1.13253C1.64429 0.620759 2.33839 0.333252 3.06214 0.333252H26.9377C27.6614 0.333252 28.3555 0.620759 28.8673 1.13253C29.3791 1.64429 29.6666 2.33839 29.6666 3.06214V26.9377ZM9.86659 7.57325C9.86659 7.27501 9.80784 6.97968 9.69371 6.70414C9.57957 6.42859 9.41228 6.17823 9.20139 5.96733C8.9905 5.75644 8.74014 5.58915 8.46459 5.47502C8.18905 5.36088 7.89372 5.30214 7.59547 5.30214C6.99314 5.30214 6.41547 5.54142 5.98956 5.96733C5.56364 6.39325 5.32436 6.97092 5.32436 7.57325C5.32436 8.17559 5.56364 8.75325 5.98956 9.17917C6.41547 9.60509 6.99314 9.84436 7.59547 9.84436C7.89372 9.84436 8.18905 9.78562 8.46459 9.67148C8.74014 9.55735 8.9905 9.39006 9.20139 9.17917C9.41228 8.96828 9.57957 8.71791 9.69371 8.44237C9.80784 8.16682 9.86659 7.8715 9.86659 7.57325ZM15.871 12.4044L15.8577 12.0933C15.8531 11.9785 15.8043 11.87 15.7214 11.7904C15.6385 11.7109 15.5281 11.6665 15.4133 11.6666H12.5644C12.4465 11.6666 12.3334 11.7134 12.2501 11.7968C12.1667 11.8801 12.1199 11.9932 12.1199 12.111L12.0933 23.8888C12.0933 24.0067 12.1401 24.1197 12.2234 24.2031C12.3068 24.2864 12.4198 24.3333 12.5377 24.3333H15.5333C15.6511 24.3333 15.7642 24.2864 15.8475 24.2031C15.9309 24.1197 15.9777 24.0067 15.9777 23.8888C15.9688 21.6621 14.8488 13.831 19.0355 14.9466C19.8147 15.154 20.2355 15.6651 20.2977 16.4799C20.4814 18.9333 20.511 21.3955 20.3866 23.8666C20.3836 23.9268 20.3928 23.987 20.4138 24.0435C20.4348 24.1 20.4671 24.1517 20.5086 24.1953C20.5502 24.239 20.6002 24.2737 20.6557 24.2974C20.7111 24.3211 20.7707 24.3333 20.831 24.3333H23.8533C23.9689 24.3333 24.0799 24.2883 24.1629 24.2078C24.2459 24.1273 24.2942 24.0177 24.2977 23.9021C24.3599 21.757 24.3495 19.2251 24.2666 16.3066C24.1599 12.6621 22.2977 11.0518 18.6799 11.4755C17.8503 11.5733 17.1199 11.9584 16.4888 12.631C16.1036 13.0399 15.8977 12.9644 15.871 12.4044ZM9.58841 11.8656C9.58845 11.8405 9.58355 11.8156 9.57398 11.7924C9.56441 11.7692 9.55037 11.7481 9.53265 11.7303C9.51493 11.7126 9.49389 11.6984 9.47072 11.6888C9.44755 11.6792 9.4227 11.6742 9.39761 11.6741L5.86876 11.668C5.84367 11.6679 5.81881 11.6728 5.7956 11.6824C5.7724 11.6919 5.7513 11.706 5.73352 11.7237C5.71574 11.7414 5.70163 11.7624 5.69198 11.7856C5.68233 11.8088 5.67734 11.8336 5.6773 11.8587L5.65587 24.1343C5.65583 24.1594 5.66074 24.1842 5.6703 24.2074C5.67987 24.2306 5.69391 24.2517 5.71163 24.2695C5.72935 24.2873 5.75039 24.3014 5.77356 24.311C5.79673 24.3207 5.82158 24.3257 5.84667 24.3257L9.37552 24.3319C9.40062 24.3319 9.42548 24.327 9.44868 24.3175C9.47189 24.3079 9.49298 24.2939 9.51076 24.2761C9.52854 24.2584 9.54265 24.2374 9.5523 24.2142C9.56195 24.1911 9.56694 24.1662 9.56699 24.1411L9.58841 11.8656Z" fill="white"/>
</svg>
